<svg width="48" height="48" viewBox="0 0 48 48" fill="none" xmlns="http://www.w3.org/2000/svg">
<path d="M38 12H22C21.4696 12 20.9609 12.2107 20.5858 12.5858C20.2107 12.9609 20 13.4696 20 14V40H8C7.46957 40 6.96086 39.7893 6.58579 39.4142C6.21071 39.0391 6 38.5304 6 38V6C6 5.46957 6.21071 4.96086 6.58579 4.58579C6.96086 4.21071 7.46957 4 8 4H36C36.5304 4 37.0391 4.21071 37.4142 4.58579C37.7893 4.96086 38 5.46957 38 6V12ZM26 16H42C42.5304 16 43.0391 16.2107 43.4142 16.5858C43.7893 16.9609 44 17.4696 44 18V42C44 42.5304 43.7893 43.0391 43.4142 43.4142C43.0391 43.7893 42.5304 44 42 44H26C25.4696 44 24.9609 43.7893 24.5858 43.4142C24.2107 43.0391 24 42.5304 24 42V18C24 17.4696 24.2107 16.9609 24.5858 16.5858C24.9609 16.2107 25.4696 16 26 16Z" fill="url(#paint0_linear)"/>
<defs>
<linearGradient id="paint0_linear" x1="25" y1="4" x2="25" y2="44" gradientUnits="userSpaceOnUse">
<stop stop-color="#F56565"/>
<stop offset="1" stop-color="#D53F8C"/>
</linearGradient>
</defs>
</svg>
