<svg width="143" height="46" viewBox="0 0 143 46" fill="none" xmlns="http://www.w3.org/2000/svg">
<path d="M41.1346 32.0058C40.9114 31.4582 40.7022 30.8825 40.4791 30.3911L39.447 28.0463L39.4052 28.0042C36.3369 21.2646 33.0593 14.4128 29.5866 7.67322L29.4471 7.3924C29.0984 6.73249 28.7498 6.00237 28.3871 5.32842C27.9408 4.5281 27.5085 3.67161 26.7972 2.85725C26.1039 2.00517 25.2313 1.31865 24.2424 0.847261C23.2536 0.375867 22.1731 0.131348 21.079 0.131348C19.9849 0.131348 18.9044 0.375867 17.9155 0.847261C16.9267 1.31865 16.0541 2.00517 15.3608 2.85725C14.7053 3.67161 14.2171 4.5281 13.7708 5.32842C13.4221 6.05853 13.0735 6.77461 12.7108 7.43452L12.5714 7.71534C9.15439 14.4549 5.82109 21.3067 2.75278 28.0463L2.66909 28.1305C2.36226 28.8607 1.99964 29.6188 1.65097 30.4332C1.42782 30.9246 1.20467 31.4582 0.981522 32.0479C0.379063 33.5921 0.186678 35.2676 0.42333 36.9095C0.659981 38.5513 1.3175 40.1027 2.33108 41.4108C3.34467 42.7189 4.67934 43.7386 6.20355 44.3692C7.72776 44.9999 9.38891 45.2199 11.0233 45.0075C12.5902 44.7998 14.0989 44.2744 15.4584 43.463C17.2715 42.438 19.0148 40.9497 20.9674 38.8015C22.92 40.9497 24.7052 42.438 26.4764 43.477C28.1798 44.4835 30.1087 45.0391 32.0831 45.0917C34.3694 45.1013 36.5821 44.2778 38.3124 42.7732C40.0427 41.2686 41.174 39.1846 41.4972 36.906C41.8708 35.2685 41.7444 33.5557 41.1346 31.9917V32.0058ZM21.1069 34.3365C18.708 31.2476 17.146 28.4113 16.616 25.9823C16.3964 25.0822 16.3491 24.1482 16.4765 23.2303C16.5741 22.5142 16.8391 21.8824 17.2017 21.3489C18.0386 20.1273 19.503 19.3691 21.1069 19.3691C21.8686 19.3457 22.6241 19.513 23.3057 19.8561C23.9873 20.1992 24.5736 20.7073 25.012 21.3348C25.3746 21.8965 25.6396 22.5142 25.7233 23.2303C25.8628 24.0447 25.807 24.9854 25.5838 25.9823C25.0538 28.3692 23.4918 31.2335 21.1069 34.3365ZM38.8752 36.4146C38.7167 37.5714 38.2599 38.6663 37.5503 39.5901C36.8406 40.5139 35.9029 41.2344 34.8306 41.6798C33.7706 42.1291 32.5991 42.2555 31.4555 42.1291C30.3397 41.9887 29.224 41.6237 28.0803 40.9497C26.1814 39.7682 24.474 38.3002 23.0176 36.5971C25.9464 32.9465 27.7177 29.6189 28.3871 26.6563C28.7079 25.2522 28.7498 23.9885 28.6103 22.8231C28.4361 21.7185 28.027 20.6649 27.4109 19.7342C26.7074 18.725 25.7684 17.9053 24.6765 17.3471C23.5845 16.7889 22.3731 16.5093 21.1487 16.5329C18.5685 16.5329 16.2673 17.7404 14.8726 19.7201C14.2448 20.6485 13.839 21.7105 13.6871 22.8231C13.5058 24.0026 13.5477 25.3084 13.9103 26.6563C14.5797 29.6189 16.3928 32.9886 19.2798 36.6252C17.8482 38.3608 16.1367 39.8417 14.2171 41.0059C13.0595 41.6798 11.9577 42.0308 10.842 42.1712C9.10681 42.395 7.35406 41.9202 5.96469 40.8502C4.57532 39.7801 3.66163 38.2012 3.42223 36.4567C3.28276 35.3334 3.38039 34.2102 3.82669 32.9465C3.96615 32.4972 4.17536 32.0479 4.39851 31.5143C4.70534 30.7842 5.06796 30.026 5.41663 29.2678L5.47242 29.1695C8.48494 22.4721 11.7764 15.6343 15.1934 8.93688L15.3329 8.65607C15.6815 7.98211 16.0302 7.26604 16.3928 6.59208C16.7554 5.87601 17.146 5.18801 17.648 4.62638C18.0826 4.1041 18.6257 3.68407 19.2389 3.39588C19.8522 3.10768 20.5207 2.95833 21.1975 2.95833C21.8743 2.95833 22.5429 3.10768 23.1561 3.39588C23.7694 3.68407 24.3124 4.1041 24.747 4.62638C25.2351 5.18801 25.6396 5.87601 26.0022 6.59208C26.3509 7.26604 26.6996 7.99615 27.0622 8.65607L27.2017 8.93688C30.6047 15.6343 33.8962 22.4721 36.9645 29.1695L37.0063 29.2117C37.3689 29.9418 37.6758 30.7561 38.0244 31.4582C38.2476 32.0058 38.4707 32.441 38.6102 32.9044C38.8752 34.168 39.0147 35.2913 38.8752 36.4146ZM58.2892 34.0276C57.2383 34.0431 56.1974 33.8202 55.2437 33.3754C54.29 32.9306 53.448 32.2753 52.7802 31.4582C51.2796 29.7171 50.4832 27.4721 50.5487 25.1679C50.5258 22.8136 51.3479 20.5301 52.8639 18.7373C53.5652 17.9098 54.4381 17.2471 55.4212 16.7959C56.4044 16.3446 57.4738 16.1159 58.5542 16.1257C59.5709 16.0977 60.5779 16.3304 61.4806 16.802C62.3833 17.2736 63.1521 17.9686 63.7146 18.8215L63.854 16.6172H67.9265V33.5783H63.8401L63.7006 31.1072C63.1207 32.0179 62.3191 32.7643 61.372 33.2755C60.4249 33.7866 59.3637 34.0455 58.2892 34.0276ZM59.3492 29.9839C60.1581 29.9839 60.8694 29.7593 61.5389 29.3521C62.1525 28.9028 62.6546 28.3131 63.0451 27.597C63.3938 26.8809 63.5751 26.0244 63.5751 25.0697C63.6295 24.2404 63.4691 23.4111 63.1098 22.663C62.7504 21.9148 62.2043 21.2733 61.5249 20.8013C60.8721 20.3918 60.1184 20.1748 59.3492 20.1748C58.5801 20.1748 57.8263 20.3918 57.1735 20.8013C56.5598 21.2506 56.0577 21.8403 55.6672 22.5564C55.2984 23.3461 55.117 24.2113 55.1372 25.0837C55.0829 25.913 55.2432 26.7422 55.6026 27.4904C55.9619 28.2386 56.508 28.88 57.1874 29.3521C57.8429 29.7593 58.5542 29.9839 59.3492 29.9839ZM74.9 12.0399C74.9 12.5313 74.8163 12.9806 74.5931 13.3457C74.37 13.6967 74.0632 14.0196 73.6587 14.2443C73.2542 14.4689 72.8219 14.5532 72.3756 14.5532C71.9293 14.5532 71.483 14.4689 71.0785 14.2443C70.696 14.0299 70.3743 13.7205 70.1441 13.3457C69.9281 12.9457 69.8222 12.4949 69.8373 12.0399C69.8373 11.5344 69.9349 11.0851 70.1441 10.7341C70.3672 10.3129 70.688 10.0601 71.0785 9.83549C71.483 9.61084 71.9154 9.51255 72.3756 9.51255C72.8195 9.50225 73.2585 9.6081 73.6497 9.81975C74.0408 10.0314 74.3707 10.3416 74.6071 10.7201C74.8101 11.1294 74.9106 11.5825 74.9 12.0399ZM70.158 33.5222V16.5891H74.5931V33.5503H70.1441L70.158 33.5222ZM86.448 21.0259V21.0821C86.2388 20.9838 85.9599 20.9417 85.7506 20.8996C85.4717 20.8434 85.2486 20.8434 84.9836 20.8434C83.7423 20.8434 82.8079 21.2085 82.1942 21.9667C81.5247 22.7389 81.2179 23.82 81.2179 25.2101V33.5362H76.7689V16.575H80.8553L80.9948 19.1445C81.4411 18.2459 81.9711 17.5719 82.7242 17.0665C83.4733 16.5753 84.3552 16.3301 85.2486 16.3644C85.5693 16.3644 85.8762 16.3925 86.1412 16.4487C86.2806 16.4908 86.3643 16.4908 86.448 16.5329V21.0259ZM88.2332 33.5222V9.62488H92.6683V18.7513C93.2959 17.937 94.0072 17.3051 94.8998 16.8137C96.3129 16.1162 97.9182 15.9184 99.4567 16.2521C100.995 16.5858 102.377 17.4316 103.38 18.6531C104.883 20.3978 105.68 22.6483 105.611 24.9573C105.634 27.3117 104.812 29.5952 103.296 31.388C102.595 32.2155 101.722 32.8782 100.739 33.3294C99.7554 33.7806 98.6859 34.0094 97.6055 33.9996C96.5889 34.0276 95.5819 33.7948 94.6791 33.3233C93.7764 32.8517 93.0077 32.1567 92.4452 31.3037L92.3057 33.5081L88.2332 33.5503V33.5222ZM96.8105 29.9839C97.6055 29.9839 98.3168 29.7593 98.9862 29.3521C99.5999 28.9028 100.102 28.3131 100.493 27.597C100.855 26.8809 101.022 26.0244 101.022 25.0697C101.022 24.1289 100.855 23.2724 100.493 22.5564C100.126 21.8659 99.6117 21.2663 98.9862 20.8013C98.3334 20.3918 97.5797 20.1748 96.8105 20.1748C96.0414 20.1748 95.2876 20.3918 94.6348 20.8013C94.0072 21.2506 93.5191 21.8403 93.1146 22.5564C92.7458 23.3461 92.5644 24.2113 92.5846 25.0837C92.5303 25.913 92.6906 26.7422 93.05 27.4904C93.4093 28.2386 93.9554 28.88 94.6348 29.3521C95.2903 29.7593 96.0016 29.9839 96.8105 29.9839ZM107.285 33.5362V16.575H111.371L111.511 18.7794C112.024 17.9344 112.753 17.2429 113.621 16.7764C114.489 16.3098 115.465 16.0852 116.448 16.1257C117.572 16.1062 118.677 16.4207 119.625 17.0301C120.572 17.6394 121.32 18.5165 121.775 19.5517C122.264 20.6188 122.529 21.9386 122.529 23.4129V33.5783H118.08V24.0026C118.08 22.8231 117.815 21.8965 117.285 21.2085C116.755 20.5345 116.029 20.1695 115.109 20.1695C114.439 20.1695 113.854 20.3099 113.338 20.6188C112.849 20.9417 112.445 21.3489 112.138 21.9245C111.828 22.5064 111.674 23.1599 111.692 23.82V33.5362H107.285ZM124.746 33.5362V9.61084H129.195V18.7373C129.798 17.9184 130.582 17.2522 131.485 16.7915C132.388 16.3309 133.385 16.0885 134.397 16.0836C135.448 16.0681 136.489 16.2911 137.443 16.7359C138.397 17.1807 139.239 17.8359 139.906 18.6531C141.4 20.3976 142.191 22.6414 142.124 24.9433C142.148 27.2978 141.326 29.5818 139.809 31.3739C139.108 32.2015 138.235 32.8642 137.251 33.3154C136.268 33.7666 135.199 33.9953 134.118 33.9855C133.102 34.0135 132.095 33.7808 131.192 33.3092C130.289 32.8376 129.521 32.1427 128.958 31.2897L128.833 33.4941L124.746 33.5362ZM133.365 29.9839C134.174 29.9839 134.886 29.7593 135.541 29.3521C136.169 28.9028 136.657 28.3131 137.061 27.597C137.41 26.8809 137.591 26.0244 137.591 25.0697C137.646 24.2404 137.485 23.4111 137.126 22.663C136.767 21.9148 136.22 21.2733 135.541 20.8013C134.888 20.3918 134.134 20.1748 133.365 20.1748C132.596 20.1748 131.842 20.3918 131.19 20.8013C130.576 21.2506 130.074 21.8403 129.683 22.5564C129.294 23.339 129.111 24.2094 129.153 25.0837C129.099 25.913 129.259 26.7422 129.619 27.4904C129.978 28.2386 130.524 28.88 131.204 29.3521C131.859 29.7593 132.529 29.9839 133.365 29.9839Z" fill="#FF385C"/>
</svg>
