<svg width="15" height="20" viewBox="0 0 15 20" fill="none" xmlns="http://www.w3.org/2000/svg">
<path fill-rule="evenodd" clip-rule="evenodd" d="M0.778547 20C0.67474 20 0.570934 20 0.467128 19.9468C0.155709 19.8404 0 19.5213 0 19.2021V2.5C0 1.11702 1.08997 0 2.43945 0H12.5606C13.91 0 15 1.11702 15 2.5V19.2021C15 19.5213 14.7924 19.7872 14.5329 19.9468C14.2734 20.0532 13.91 20 13.7024 19.7872L7.16263 13.617L1.34948 19.734C1.19377 19.8936 0.986159 20 0.778547 20ZM7.11073 11.7021C7.31834 11.7021 7.47405 11.7553 7.62976 11.9149L13.391 17.3404V2.44681C13.391 1.96809 12.9758 1.54255 12.5087 1.54255H2.38754C1.92042 1.54255 1.50519 1.96809 1.50519 2.44681V17.1809L6.48789 11.9149C6.6955 11.8085 6.90311 11.7021 7.11073 11.7021Z" fill="#78818B"/>
</svg>
