<svg width="18" height="19" viewBox="0 0 18 19" fill="none" xmlns="http://www.w3.org/2000/svg">
<path fill-rule="evenodd" clip-rule="evenodd" d="M15 3.30859H3C2.0335 3.30859 1.25 4.0921 1.25 5.0586V15.9998C1.25 16.9663 2.0335 17.7498 3 17.7498H15C15.9665 17.7498 16.75 16.9663 16.75 15.9998V5.05859C16.75 4.0921 15.9665 3.30859 15 3.30859ZM3 2.05859C1.34315 2.05859 0 3.40174 0 5.0586V15.9998C0 17.6566 1.34315 18.9998 3 18.9998H15C16.6569 18.9998 18 17.6566 18 15.9998V5.05859C18 3.40174 16.6569 2.05859 15 2.05859H3Z" fill="#78818B"/>
<path fill-rule="evenodd" clip-rule="evenodd" d="M18 10H0V8.75H18V10Z" fill="#78818B"/>
<path fill-rule="evenodd" clip-rule="evenodd" d="M4.625 2.39979e-08C4.97018 1.07442e-08 5.25 0.279822 5.25 0.625L5.25 6.375C5.25 6.72018 4.97018 7 4.625 7C4.27982 7 4 6.72018 4 6.375L4 0.625C4 0.279822 4.27982 3.72516e-08 4.625 2.39979e-08Z" fill="#78818B"/>
<path fill-rule="evenodd" clip-rule="evenodd" d="M13.625 2.39979e-08C13.9702 1.07442e-08 14.25 0.279822 14.25 0.625L14.25 6.375C14.25 6.72018 13.9702 7 13.625 7C13.2798 7 13 6.72018 13 6.375L13 0.625C13 0.279822 13.2798 3.72516e-08 13.625 2.39979e-08Z" fill="#78818B"/>
</svg>
