<svg width="48" height="48" viewBox="0 0 48 48" fill="none" xmlns="http://www.w3.org/2000/svg">
<path d="M26.0001 26.0001V37.1701L29.6561 33.5141L32.4861 36.3441L24.0001 44.8281L15.5141 36.3441L18.3441 33.5141L22.0001 37.1701V26.0001H26.0001ZM24.0001 4.00012C27.434 4.00029 30.7482 5.26235 33.3125 7.54636C35.8767 9.83037 37.5122 12.977 37.9081 16.3881C40.3966 17.0668 42.5675 18.5983 44.0414 20.7152C45.5153 22.832 46.1984 25.3995 45.9713 27.9689C45.7442 30.5383 44.6215 32.9462 42.7992 34.7718C40.9769 36.5973 38.5711 37.7244 36.0021 37.9561L36.0001 34.0001C36.0032 30.8544 34.771 27.8332 32.5688 25.587C30.3665 23.3408 27.3703 22.0492 24.2251 21.9902C21.0799 21.9312 18.0374 23.1096 15.7524 25.2716C13.4675 27.4337 12.1229 30.4065 12.0081 33.5501L12.0001 34.0001V37.9561C9.43096 37.7248 7.02487 36.5979 5.20233 34.7725C3.37979 32.9471 2.25672 30.5392 2.02941 27.9698C1.80211 25.4003 2.48502 22.8327 3.9588 20.7157C5.43258 18.5987 7.60348 17.0669 10.0921 16.3881C10.4875 12.9769 12.1229 9.82994 14.6872 7.54585C17.2516 5.26176 20.566 3.99985 24.0001 4.00012Z" fill="url(#paint0_linear)"/>
<defs>
<linearGradient id="paint0_linear" x1="24.0003" y1="4.00012" x2="24.0003" y2="44.8281" gradientUnits="userSpaceOnUse">
<stop stop-color="#F56565"/>
<stop offset="1" stop-color="#D53F8C"/>
</linearGradient>
</defs>
</svg>
