<svg width="32" height="32" viewBox="0 0 32 32" fill="none" xmlns="http://www.w3.org/2000/svg">
<path d="M12 20L20 12" stroke="white" stroke-width="1.5" stroke-linecap="round" stroke-linejoin="round"/>
<circle cx="12.6667" cy="12.6667" r="0.666667" stroke="white" stroke-width="1.5" stroke-linecap="round" stroke-linejoin="round"/>
<circle cx="19.3333" cy="19.3334" r="0.666667" stroke="white" stroke-width="1.5" stroke-linecap="round" stroke-linejoin="round"/>
<path fill-rule="evenodd" clip-rule="evenodd" d="M6.66667 9.6C6.66667 7.97997 7.97997 6.66667 9.6 6.66667H10.9333C11.7079 6.66623 12.4508 6.35947 13 5.81334L13.9333 4.88C14.4839 4.32633 15.2325 4.01501 16.0133 4.01501C16.7942 4.01501 17.5428 4.32633 18.0933 4.88L19.0267 5.81334C19.5759 6.35947 20.3188 6.66623 21.0933 6.66667H22.4267C24.0467 6.66667 25.36 7.97997 25.36 9.6V10.9333C25.3604 11.7079 25.6672 12.4508 26.2133 13L27.1467 13.9333C27.7003 14.4839 28.0117 15.2325 28.0117 16.0133C28.0117 16.7942 27.7003 17.5428 27.1467 18.0933L26.2133 19.0267C25.6672 19.5759 25.3604 20.3188 25.36 21.0933V22.4267C25.36 24.0467 24.0467 25.36 22.4267 25.36H21.0933C20.3188 25.3604 19.5759 25.6672 19.0267 26.2133L18.0933 27.1467C17.5428 27.7003 16.7942 28.0117 16.0133 28.0117C15.2325 28.0117 14.4839 27.7003 13.9333 27.1467L13 26.2133C12.4508 25.6672 11.7079 25.3604 10.9333 25.36H9.6C7.97997 25.36 6.66667 24.0467 6.66667 22.4267V21.0933C6.66623 20.3188 6.35947 19.5759 5.81334 19.0267L4.88 18.0933C4.32633 17.5428 4.01501 16.7942 4.01501 16.0133C4.01501 15.2325 4.32633 14.4839 4.88 13.9333L5.81334 13C6.35947 12.4508 6.66623 11.7079 6.66667 10.9333V9.6Z" stroke="white" stroke-width="1.5" stroke-linecap="round" stroke-linejoin="round"/>
</svg>
