<svg width="48" height="48" viewBox="0 0 48 48" fill="none" xmlns="http://www.w3.org/2000/svg">
<path d="M40 40C40 40.5304 39.7893 41.0391 39.4142 41.4142C39.0391 41.7892 38.5304 42 38 42H10C9.46957 42 8.96086 41.7892 8.58579 41.4142C8.21071 41.0391 8 40.5304 8 40V22H2L22.654 3.22396C23.0222 2.88892 23.5022 2.70325 24 2.70325C24.4978 2.70325 24.9778 2.88892 25.346 3.22396L46 22H40V40ZM15 26C15 28.3869 15.9482 30.6761 17.636 32.3639C19.3239 34.0518 21.6131 35 24 35C26.3869 35 28.6761 34.0518 30.364 32.3639C32.0518 30.6761 33 28.3869 33 26H29C29 27.326 28.4732 28.5978 27.5355 29.5355C26.5979 30.4732 25.3261 31 24 31C22.6739 31 21.4021 30.4732 20.4645 29.5355C19.5268 28.5978 19 27.326 19 26H15Z" fill="url(#paint0_linear)"/>
<defs>
<linearGradient id="paint0_linear" x1="24" y1="2.70325" x2="24" y2="42" gradientUnits="userSpaceOnUse">
<stop stop-color="#F56565"/>
<stop offset="1" stop-color="#D53F8C"/>
</linearGradient>
</defs>
</svg>
