<svg width="14" height="9" viewBox="0 0 14 9" fill="none" xmlns="http://www.w3.org/2000/svg">
<path d="M12.5962 6.31728C12.5962 6.70494 12.9104 7.0192 13.2981 7.0192C13.6857 7.0192 14 6.70494 14 6.31728V0.70192C14 0.31426 13.6857 0 13.2981 0H7.68272C7.29506 0 6.9808 0.31426 6.9808 0.70192C6.9808 1.08958 7.29506 1.40384 7.68272 1.40384H11.6065L7.68272 5.32757L5.36639 3.01123C5.09345 2.7437 4.65664 2.7437 4.3837 3.01123L0.172184 7.22275C-0.0684287 7.49954 -0.0554021 7.9149 0.202082 8.17606C0.459566 8.43722 0.874703 8.45614 1.15487 8.21948L4.87505 4.49229L7.19138 6.80862C7.46432 7.07615 7.90113 7.07615 8.17407 6.80862L12.5962 2.38653V6.31728Z" fill="#2F855A"/>
</svg>
