<svg width="211" height="45" viewBox="0 0 211 45" fill="none" xmlns="http://www.w3.org/2000/svg">
<path d="M74.6727 25.8897L73.4226 29.4258H73.3184C73.11 28.6284 72.728 27.415 72.103 25.959L65.4009 9.14502H58.8378V35.9434H63.1785V19.4067C63.1785 18.3667 63.1785 17.188 63.1438 15.7319C63.109 15.0039 63.0396 14.4492 63.0049 14.0332H63.109C63.3174 15.0732 63.5605 15.8359 63.7341 16.3213L71.7904 35.874H74.8463L82.8332 16.1479C83.0068 15.6973 83.1805 14.7959 83.3541 14.0332H83.4583C83.3541 16.0093 83.2846 17.7773 83.2499 18.8521V35.8394H87.8684V9.07568H81.5484L74.6727 25.8897ZM92.2439 16.6333H96.7582V35.8394H92.2439V16.6333ZM94.5358 8.521C93.7718 8.521 93.1467 8.79834 92.6259 9.28369C92.105 9.76904 91.8272 10.3931 91.8272 11.1558C91.8272 11.8838 92.105 12.5078 92.6259 12.9932C93.1467 13.4785 93.7718 13.7212 94.5358 13.7212C95.2997 13.7212 95.9595 13.4438 96.4457 12.9932C96.9666 12.5078 97.2444 11.8838 97.2444 11.1558C97.2444 10.4277 96.9666 9.80371 96.4457 9.28369C95.9942 8.79834 95.3345 8.521 94.5358 8.521ZM112.767 16.46C111.933 16.2866 111.065 16.1826 110.232 16.1826C108.183 16.1826 106.308 16.6333 104.745 17.5347C103.182 18.436 101.932 19.6841 101.134 21.2441C100.3 22.8389 99.8835 24.6763 99.8835 26.791C99.8835 28.6284 100.3 30.2578 101.099 31.7485C101.898 33.2046 103.009 34.3833 104.502 35.1807C105.926 35.978 107.593 36.394 109.468 36.394C111.621 36.394 113.461 35.9434 114.92 35.1113L114.954 35.0767V30.9165L114.781 31.0552C114.121 31.5405 113.357 31.9565 112.593 32.1992C111.794 32.4766 111.065 32.6152 110.44 32.6152C108.634 32.6152 107.211 32.0952 106.204 30.9512C105.162 29.8418 104.641 28.3164 104.641 26.4097C104.641 24.4336 105.162 22.8735 106.238 21.7295C107.315 20.5854 108.739 19.9961 110.475 19.9961C111.933 19.9961 113.427 20.4814 114.781 21.4521L114.954 21.5908V17.188L114.92 17.1533C114.329 16.9106 113.67 16.6333 112.767 16.46ZM127.664 16.3213C126.553 16.3213 125.511 16.668 124.608 17.396C123.844 18.02 123.323 18.9214 122.872 19.9961H122.837V16.6333H118.323V35.8394H122.837V26.0283C122.837 24.3643 123.184 22.9775 123.948 21.9722C124.712 20.9321 125.685 20.4121 126.865 20.4121C127.282 20.4121 127.699 20.5161 128.22 20.5855C128.706 20.7241 129.053 20.8628 129.296 21.0361L129.47 21.1748V16.668L129.366 16.6333C129.053 16.4253 128.428 16.3213 127.664 16.3213ZM139.957 16.2173C136.797 16.2173 134.262 17.1533 132.491 18.9907C130.685 20.8281 129.817 23.3589 129.817 26.5483C129.817 29.5298 130.72 31.9565 132.456 33.7246C134.193 35.458 136.554 36.3594 139.506 36.3594C142.596 36.3594 145.062 35.4233 146.833 33.5513C148.638 31.6792 149.507 29.1831 149.507 26.0977C149.507 23.0469 148.673 20.6201 146.972 18.8521C145.339 17.084 142.943 16.2173 139.957 16.2173ZM143.568 30.9858C142.735 32.0605 141.415 32.5806 139.783 32.5806C138.151 32.5806 136.832 32.0605 135.894 30.9165C134.956 29.8418 134.505 28.2817 134.505 26.3057C134.505 24.2603 134.991 22.7002 135.894 21.5908C136.832 20.4814 138.117 19.9268 139.749 19.9268C141.346 19.9268 142.596 20.4468 143.499 21.5215C144.402 22.5962 144.888 24.1562 144.888 26.2017C144.819 28.2817 144.437 29.9111 143.568 30.9858ZM159.577 24.6069C158.153 24.0176 157.25 23.5669 156.834 23.1855C156.486 22.8389 156.313 22.3535 156.313 21.7295C156.313 21.2095 156.521 20.6895 157.042 20.3428C157.563 19.9961 158.153 19.8228 159.021 19.8228C159.785 19.8228 160.584 19.9614 161.348 20.1694C162.112 20.3774 162.806 20.6895 163.362 21.1055L163.536 21.2441V17.0146L163.432 16.98C162.911 16.772 162.216 16.564 161.383 16.3906C160.549 16.252 159.785 16.1826 159.16 16.1826C157.007 16.1826 155.236 16.7026 153.847 17.8467C152.458 18.9214 151.798 20.3774 151.798 22.0762C151.798 22.9775 151.937 23.7749 152.25 24.4336C152.562 25.0923 153.014 25.7163 153.639 26.2363C154.264 26.7217 155.167 27.2764 156.417 27.7964C157.459 28.2471 158.257 28.5938 158.744 28.8711C159.23 29.1484 159.542 29.4605 159.785 29.7031C159.959 29.9805 160.063 30.3272 160.063 30.7778C160.063 32.0605 159.091 32.6846 157.111 32.6846C156.347 32.6846 155.549 32.5459 154.611 32.2339C153.674 31.9219 152.805 31.4712 152.076 30.9512L151.903 30.8125V35.2153L152.007 35.25C152.667 35.562 153.465 35.77 154.438 36.0127C155.41 36.186 156.278 36.3247 157.042 36.3247C159.369 36.3247 161.279 35.8047 162.633 34.6606C164.022 33.5513 164.751 32.1299 164.751 30.2925C164.751 29.0098 164.404 27.8657 163.64 26.999C162.633 26.167 161.383 25.3003 159.577 24.6069ZM176.662 16.2173C173.502 16.2173 170.967 17.1533 169.196 18.9907C167.425 20.8281 166.522 23.3589 166.522 26.5483C166.522 29.5298 167.425 31.9565 169.161 33.7246C170.898 35.458 173.259 36.3594 176.211 36.3594C179.301 36.3594 181.767 35.4233 183.538 33.5513C185.343 31.6792 186.212 29.1831 186.212 26.0977C186.212 23.0469 185.378 20.6201 183.677 18.8521C182.044 17.084 179.648 16.2173 176.662 16.2173ZM180.239 30.9858C179.405 32.0605 178.086 32.5806 176.454 32.5806C174.787 32.5806 173.502 32.0605 172.564 30.9165C171.627 29.8418 171.175 28.2817 171.175 26.3057C171.175 24.2603 171.662 22.7002 172.564 21.5908C173.502 20.4814 174.787 19.9268 176.419 19.9268C177.982 19.9268 179.266 20.4468 180.169 21.5215C181.072 22.5962 181.558 24.1562 181.558 26.2017C181.558 28.2817 181.107 29.9111 180.239 30.9858ZM210.346 20.3428V16.6333H205.797V10.9478L205.658 10.9824L201.352 12.2651L201.248 12.2998V16.6333H194.442V14.2065C194.442 13.0972 194.719 12.2305 195.206 11.6758C195.692 11.1211 196.421 10.8437 197.324 10.8437C197.949 10.8437 198.609 10.9824 199.338 11.2944L199.512 11.3984V7.48096L199.407 7.44629C198.782 7.23828 197.949 7.09961 196.872 7.09961C195.518 7.09961 194.337 7.41162 193.261 7.93164C192.184 8.521 191.386 9.31836 190.795 10.3931C190.205 11.4331 189.893 12.6118 189.893 13.9639V16.6333H186.732V20.3081H189.893V35.8394H194.442V20.3428H201.248V30.2231C201.248 34.2793 203.158 36.3247 206.978 36.3247C207.603 36.3247 208.262 36.2207 208.887 36.1167C209.547 35.978 210.033 35.8047 210.311 35.666L210.346 35.6313V31.9219L210.172 32.0605C209.895 32.2339 209.651 32.3726 209.235 32.4766C208.887 32.5806 208.575 32.6152 208.332 32.6152C207.429 32.6152 206.804 32.4072 206.352 31.8872C205.936 31.4019 205.727 30.6045 205.727 29.4258V20.3428H210.346Z" fill="#737373"/>
<path d="M0.637512 0.131348H21.9243V21.3828H0.637512V0.131348Z" fill="#F25022"/>
<path d="M24.1464 0.131348H45.4332V21.3828H24.1464V0.131348Z" fill="#7FBA00"/>
<path d="M0.637512 23.6016H21.9243V44.8535H0.637512V23.6016Z" fill="#00A4EF"/>
<path d="M24.1464 23.6016H45.4332V44.8535H24.1464V23.6016Z" fill="#FFB900"/>
</svg>
