<svg width="15" height="10" viewBox="0 0 15 10" fill="none" xmlns="http://www.w3.org/2000/svg">
<path id="Path" d="M12.286 5.65919H1.34731C0.959799 5.65919 0.64566 5.37937 0.64566 5.03419C0.64566 4.68902 0.959799 4.4092 1.34731 4.4092H12.286L8.56727 1.0967C8.36836 0.942673 8.28313 0.702339 8.34661 0.474475C8.4101 0.246611 8.61159 0.0696602 8.86827 0.0163472C9.12496 -0.0369657 9.39353 0.0423536 9.56361 0.221705L14.4751 4.5967C14.7426 4.83972 14.7426 5.22867 14.4751 5.47169L9.56361 9.84668C9.28693 10.0609 8.87173 10.0493 8.61067 9.82006C8.34961 9.5908 8.3307 9.22115 8.56727 8.97169L12.286 5.65919Z" fill="white"/>
</svg>
