<svg width="48" height="48" viewBox="0 0 48 48" fill="none" xmlns="http://www.w3.org/2000/svg">
<path d="M12.91 38L4 45V8C4 7.46957 4.21071 6.96086 4.58579 6.58579C4.96086 6.21071 5.46957 6 6 6H42C42.5304 6 43.0391 6.21071 43.4142 6.58579C43.7893 6.96086 44 7.46957 44 8V36C44 36.5304 43.7893 37.0391 43.4142 37.4142C43.0391 37.7893 42.5304 38 42 38H12.91ZM22.586 24.242L17.636 19.292L14.808 22.122L22.586 29.9L33.9 18.586L31.072 15.758L22.586 24.242Z" fill="url(#paint0_linear)"/>
<defs>
<linearGradient id="paint0_linear" x1="24" y1="6" x2="24" y2="45" gradientUnits="userSpaceOnUse">
<stop stop-color="#F56565"/>
<stop offset="1" stop-color="#D53F8C"/>
</linearGradient>
</defs>
</svg>
